# WaveFront *.obj file (generated by Autodesk ATF)

mtllib BEL v2.mtl

g Body1

v 0.500000 9.500000 0.000000
v 0.500000 0.000000 0.000000
v 0.500000 0.000000 0.300000
v 0.500000 9.500000 0.300000
v 15.000000 9.500000 0.000000
v 7.750000 9.500000 0.000000
v 7.750000 9.500000 0.300000
v 15.000000 9.500000 0.300000
v 15.000000 0.000000 0.000000
v 15.000000 0.000000 0.300000
v 7.750000 0.000000 0.000000
v 7.750000 0.000000 0.300000
vt -0.000000 0.000000 0.000000
vt 9.500000 0.000000 0.000000
vt -0.000000 0.300000 0.000000
vt 9.500000 0.300000 0.000000
vt 0.000000 0.000000 0.000000
vt 7.250000 0.000000 0.000000
vt 0.000000 0.300000 0.000000
vt 7.250000 0.300000 0.000000
vt 14.500000 0.000000 0.000000
vt 14.500000 0.300000 0.000000
vt 0.000000 0.000000 0.000000
vt 9.500000 0.000000 0.000000
vt 0.000000 0.300000 0.000000
vt 9.500000 0.300000 0.000000
vt 0.000000 0.000000 0.000000
vt 7.250000 0.000000 0.000000
vt 0.000000 0.300000 0.000000
vt 7.250000 0.300000 0.000000
vt 14.500000 0.000000 0.000000
vt 14.500000 0.300000 0.000000
vt -7.250000 -4.750000 0.000000
vt 0.000000 -4.750000 0.000000
vt -7.250000 4.750000 0.000000
vt 0.000000 4.750000 0.000000
vt 7.250000 -4.750000 0.000000
vt 7.250000 4.750000 0.000000
vt -7.250000 -4.750000 0.000000
vt -0.000000 -4.750000 0.000000
vt -7.250000 4.750000 0.000000
vt -0.000000 4.750000 0.000000
vt 7.250000 -4.750000 0.000000
vt 7.250000 4.750000 0.000000
vn -1.000000 0.000000 0.000000
vn -1.000000 0.000000 0.000000
vn -1.000000 0.000000 0.000000
vn -1.000000 0.000000 0.000000
vn 0.000000 1.000000 -0.000000
vn 0.000000 1.000000 -0.000000
vn 0.000000 1.000000 -0.000000
vn 0.000000 1.000000 -0.000000
vn 0.000000 1.000000 -0.000000
vn 0.000000 1.000000 -0.000000
vn 1.000000 0.000000 0.000000
vn 1.000000 0.000000 0.000000
vn 1.000000 0.000000 0.000000
vn 1.000000 0.000000 0.000000
vn 0.000000 -1.000000 0.000000
vn 0.000000 -1.000000 0.000000
vn 0.000000 -1.000000 0.000000
vn 0.000000 -1.000000 0.000000
vn 0.000000 -1.000000 0.000000
vn 0.000000 -1.000000 0.000000
vn 0.000000 0.000000 1.000000
vn 0.000000 0.000000 1.000000
vn 0.000000 0.000000 1.000000
vn 0.000000 0.000000 1.000000
vn 0.000000 0.000000 1.000000
vn 0.000000 0.000000 1.000000
vn -0.000000 -0.000000 -1.000000
vn -0.000000 -0.000000 -1.000000
vn -0.000000 -0.000000 -1.000000
vn -0.000000 -0.000000 -1.000000
vn -0.000000 -0.000000 -1.000000
vn -0.000000 -0.000000 -1.000000
usemtl Pine
f 1/1/1 2/2/2 4/3/3
f 4/3/3 2/2/2 3/4/4
f 5/5/5 6/6/6 8/7/7
f 8/7/7 6/6/6 7/8/8
f 7/8/8 6/6/6 1/9/9
f 7/8/8 1/9/9 4/10/10
f 9/11/11 5/12/12 10/13/13
f 10/13/13 5/12/12 8/14/14
f 2/15/15 11/16/16 3/17/17
f 3/17/17 11/16/16 12/18/18
f 12/18/18 11/16/16 9/19/19
f 12/18/18 9/19/19 10/20/20
f 3/21/21 12/22/22 4/23/23
f 4/23/23 12/22/22 7/24/24
f 7/24/24 12/22/22 10/25/25
f 7/24/24 10/25/25 8/26/26
f 9/27/27 11/28/28 5/29/29
f 5/29/29 11/28/28 6/30/30
f 6/30/30 11/28/28 2/31/31
f 6/30/30 2/31/31 1/32/32
g Body2

v 0.000000 10.000000 0.000000
v 0.000000 0.000000 0.000000
v 0.000000 0.000000 6.000000
v 0.000000 10.000000 6.000000
v 15.000000 10.000000 0.000000
v 7.500000 10.000000 0.000000
v 7.500000 10.000000 6.000000
v 15.000000 10.000000 6.000000
v 15.000000 9.500000 0.000000
v 15.000000 9.500000 6.000000
v 0.500000 9.500000 0.000000
v 7.750000 9.500000 0.000000
v 7.750000 9.500000 6.000000
v 0.500000 9.500000 6.000000
v 0.500000 0.000000 0.000000
v 0.500000 0.000000 6.000000
vt -0.000000 0.000000 0.000000
vt 10.000000 0.000000 0.000000
vt -0.000000 6.000000 0.000000
vt 10.000000 6.000000 0.000000
vt -0.000000 0.000000 0.000000
vt 7.500000 0.000000 0.000000
vt -0.000000 6.000000 0.000000
vt 7.500000 6.000000 0.000000
vt 15.000000 0.000000 0.000000
vt 15.000000 6.000000 0.000000
vt 0.000000 0.000000 0.000000
vt 0.500000 0.000000 0.000000
vt 0.000000 6.000000 0.000000
vt 0.500000 6.000000 0.000000
vt 0.000000 0.000000 0.000000
vt 7.250000 0.000000 0.000000
vt 0.000000 6.000000 0.000000
vt 7.250000 6.000000 0.000000
vt 14.500000 0.000000 0.000000
vt 14.500000 6.000000 0.000000
vt 0.000000 0.000000 0.000000
vt 9.500000 0.000000 0.000000
vt 0.000000 6.000000 0.000000
vt 9.500000 6.000000 0.000000
vt 0.000000 0.000000 0.000000
vt 0.500000 0.000000 0.000000
vt 0.000000 6.000000 0.000000
vt 0.500000 6.000000 0.000000
vt -7.000000 -5.000000 0.000000
vt -7.000000 4.500000 0.000000
vt -7.500000 -5.000000 0.000000
vt -7.500000 5.000000 0.000000
vt 0.000000 5.000000 0.000000
vt 0.250000 4.500000 0.000000
vt 7.500000 5.000000 0.000000
vt 7.500000 4.500000 0.000000
vt 7.000000 -5.000000 0.000000
vt 7.500000 -5.000000 0.000000
vt 7.000000 4.500000 0.000000
vt 7.500000 5.000000 0.000000
vt -0.000000 5.000000 0.000000
vt -0.250000 4.500000 0.000000
vt -7.500000 5.000000 0.000000
vt -7.500000 4.500000 0.000000
vn -1.000000 0.000000 0.000000
vn -1.000000 0.000000 0.000000
vn -1.000000 0.000000 0.000000
vn -1.000000 0.000000 0.000000
vn 0.000000 1.000000 0.000000
vn 0.000000 1.000000 0.000000
vn 0.000000 1.000000 0.000000
vn 0.000000 1.000000 0.000000
vn 0.000000 1.000000 0.000000
vn 0.000000 1.000000 0.000000
vn 1.000000 0.000000 -0.000000
vn 1.000000 0.000000 -0.000000
vn 1.000000 0.000000 -0.000000
vn 1.000000 0.000000 -0.000000
vn 0.000000 -1.000000 0.000000
vn 0.000000 -1.000000 0.000000
vn 0.000000 -1.000000 0.000000
vn 0.000000 -1.000000 0.000000
vn 0.000000 -1.000000 0.000000
vn 0.000000 -1.000000 0.000000
vn 1.000000 0.000000 0.000000
vn 1.000000 0.000000 0.000000
vn 1.000000 0.000000 0.000000
vn 1.000000 0.000000 0.000000
vn 0.000000 -1.000000 0.000000
vn 0.000000 -1.000000 0.000000
vn 0.000000 -1.000000 0.000000
vn 0.000000 -1.000000 0.000000
vn 0.000000 0.000000 1.000000
vn 0.000000 0.000000 1.000000
vn 0.000000 0.000000 1.000000
vn 0.000000 0.000000 1.000000
vn 0.000000 0.000000 1.000000
vn 0.000000 0.000000 1.000000
vn 0.000000 0.000000 1.000000
vn 0.000000 0.000000 1.000000
vn -0.000000 -0.000000 -1.000000
vn -0.000000 -0.000000 -1.000000
vn -0.000000 -0.000000 -1.000000
vn -0.000000 -0.000000 -1.000000
vn -0.000000 -0.000000 -1.000000
vn -0.000000 -0.000000 -1.000000
vn -0.000000 -0.000000 -1.000000
vn -0.000000 -0.000000 -1.000000
usemtl Paint_-_Enamel_Glossy_(White)
f 13/33/33 14/34/34 16/35/35
f 16/35/35 14/34/34 15/36/36
f 17/37/37 18/38/38 20/39/39
f 20/39/39 18/38/38 19/40/40
f 19/40/40 18/38/38 13/41/41
f 19/40/40 13/41/41 16/42/42
f 21/43/43 17/44/44 22/45/45
f 22/45/45 17/44/44 20/46/46
f 23/47/47 24/48/48 26/49/49
f 26/49/49 24/48/48 25/50/50
f 25/50/50 24/48/48 21/51/51
f 25/50/50 21/51/51 22/52/52
f 27/53/53 23/54/54 28/55/55
f 28/55/55 23/54/54 26/56/56
f 14/57/57 27/58/58 15/59/59
f 15/59/59 27/58/58 28/60/60
f 28/61/61 26/62/62 15/63/63
f 15/63/63 26/62/62 16/64/64
f 16/64/64 26/62/62 19/65/65
f 19/65/65 26/62/62 25/66/66
f 19/65/65 25/66/66 20/67/67
f 20/67/67 25/66/66 22/68/68
f 27/69/69 14/70/70 23/71/71
f 23/71/71 14/70/70 13/72/72
f 23/71/71 13/72/72 18/73/73
f 23/71/71 18/73/73 24/74/74
f 24/74/74 18/73/73 17/75/75
f 24/74/74 17/75/75 21/76/76
# 28 vertices
# 76 texture params
# 76 normals
# 48 facets

# 2 groups
